#define e0690e65eeef4ea5d3d35348eca638bdOOB887eWjxPbELZ4_width 72
#define e0690e65eeef4ea5d3d35348eca638bdOOB887eWjxPbELZ4_height 72
static char e0690e65eeef4ea5d3d35348eca638bdOOB887eWjxPbELZ4_bits[] = {
  0x00, 0x00, 0x00, 0x00, 0x00, 0x00, 0x00, 0x00, 0x00, 0x00, 0x00, 0x00, 
  0x00, 0x00, 0x00, 0x00, 0x00, 0x00, 0x00, 0x00, 0x00, 0x00, 0x00, 0x00, 
  0x00, 0x00, 0x00, 0x00, 0x00, 0x00, 0x00, 0x00, 0x00, 0x00, 0x00, 0x00, 
  0x00, 0x80, 0xB6, 0x00, 0x00, 0x00, 0x00, 0x00, 0x00, 0x00, 0xF8, 0xFF, 
  0x1F, 0x00, 0x00, 0x00, 0x00, 0x00, 0x00, 0x0C, 0x00, 0xFC, 0x01, 0x00, 
  0x00, 0x00, 0x00, 0x00, 0x24, 0x01, 0x82, 0x0F, 0x00, 0x00, 0x00, 0x00, 
  0x00, 0x06, 0x82, 0x08, 0x78, 0x00, 0x00, 0x00, 0x00, 0x00, 0x86, 0x20, 
  0x20, 0xE0, 0x01, 0x00, 0x00, 0x00, 0x00, 0x02, 0x40, 0x01, 0x80, 0x07, 
  0x00, 0x00, 0x00, 0x00, 0x26, 0x02, 0x90, 0x00, 0x1C, 0x00, 0x00, 0x00, 
  0x00, 0x06, 0x40, 0x10, 0x00, 0x38, 0x00, 0x00, 0x00, 0x00, 0x16, 0x08, 
  0x02, 0x20, 0xE2, 0x00, 0x00, 0x00, 0x00, 0x44, 0x12, 0x08, 0x48, 0xC0, 
  0x01, 0x00, 0x00, 0x00, 0xBC, 0x94, 0x40, 0x01, 0x04, 0x03, 0x00, 0x00, 
  0x00, 0xFC, 0x97, 0x02, 0x10, 0x24, 0x06, 0x00, 0x00, 0x00, 0x00, 0x3F, 
  0x8A, 0x04, 0x00, 0x0C, 0x00, 0x00, 0x00, 0x00, 0xF0, 0x31, 0x80, 0x42, 
  0x18, 0x00, 0x00, 0x00, 0x00, 0x80, 0x0F, 0x0A, 0x10, 0x31, 0x00, 0x00, 
  0x00, 0x00, 0x00, 0x9C, 0x40, 0x22, 0x60, 0x00, 0x00, 0x00, 0x00, 0x00, 
  0x70, 0x05, 0x00, 0xC4, 0x00, 0x00, 0x00, 0x00, 0x00, 0xC0, 0x89, 0x00, 
  0x80, 0x00, 0x00, 0x00, 0x00, 0x00, 0x80, 0x13, 0x18, 0x92, 0x01, 0x00, 
  0x00, 0x00, 0x00, 0x00, 0x0E, 0x61, 0x24, 0x03, 0x00, 0x00, 0x00, 0x00, 
  0x00, 0x9C, 0x00, 0x00, 0x06, 0x00, 0x80, 0x3F, 0x00, 0x00, 0xB0, 0x20, 
  0x42, 0x06, 0x00, 0x80, 0xF4, 0x01, 0x00, 0x70, 0x01, 0x10, 0x0C, 0x00, 
  0xC0, 0x80, 0x07, 0x00, 0xC0, 0x0A, 0x22, 0x0C, 0x00, 0x80, 0x22, 0x3C, 
  0x00, 0x80, 0x41, 0x00, 0x18, 0x00, 0x80, 0x00, 0xF0, 0x00, 0x80, 0x0B, 
  0x00, 0x12, 0x00, 0xC0, 0x48, 0x88, 0x01, 0x00, 0x66, 0x28, 0x30, 0x00, 
  0xC0, 0x40, 0x08, 0x07, 0x00, 0x0C, 0x80, 0x30, 0x00, 0xC0, 0x08, 0x20, 
  0x0C, 0x00, 0x2C, 0x25, 0x68, 0x00, 0x40, 0x21, 0x01, 0x38, 0x00, 0x18, 
  0x81, 0x60, 0x00, 0xC0, 0x80, 0x60, 0x61, 0x00, 0xB0, 0x00, 0x41, 0x00, 
  0x40, 0x00, 0x10, 0xE0, 0x00, 0xB0, 0x00, 0xC1, 0x00, 0xC0, 0x15, 0x02, 
  0x88, 0x01, 0x60, 0x05, 0xC0, 0x00, 0xC0, 0x48, 0x08, 0x02, 0x03, 0x60, 
  0x90, 0x88, 0x00, 0xC0, 0x23, 0x40, 0x20, 0x06, 0xC0, 0x02, 0xA0, 0x00, 
  0x80, 0x0F, 0x01, 0x10, 0x0C, 0xC0, 0x01, 0x86, 0x00, 0x00, 0x7C, 0x12, 
  0x41, 0x08, 0x80, 0x24, 0x80, 0x01, 0x00, 0xE0, 0x5D, 0x04, 0x1A, 0x80, 
  0x05, 0xA2, 0x01, 0x00, 0x80, 0x03, 0x20, 0x30, 0x80, 0x61, 0x00, 0x01, 
  0x00, 0x00, 0x3E, 0x02, 0x60, 0x00, 0x15, 0x20, 0x01, 0x00, 0x00, 0x58, 
  0x90, 0x60, 0x00, 0x07, 0x02, 0x01, 0x00, 0x00, 0x30, 0x08, 0xC9, 0x00, 
  0x03, 0x00, 0x03, 0x00, 0x00, 0xE0, 0x01, 0xC0, 0x00, 0x1A, 0x46, 0x01, 
  0x00, 0x00, 0xC0, 0x05, 0x88, 0x00, 0x06, 0x00, 0x01, 0x00, 0x40, 0x01, 
  0x41, 0x81, 0x01, 0x96, 0x20, 0x03, 0x00, 0xF8, 0x07, 0x57, 0x80, 0x01, 
  0x86, 0x08, 0x02, 0x00, 0x1C, 0x0C, 0x06, 0x20, 0x03, 0x16, 0x41, 0x03, 
  0x00, 0x86, 0x10, 0x0C, 0x40, 0x03, 0x14, 0x04, 0x02, 0x00, 0x03, 0x34, 
  0x2C, 0x02, 0x02, 0x1C, 0x10, 0x03, 0x00, 0x03, 0x61, 0xB8, 0x08, 0x02, 
  0x84, 0x42, 0x03, 0x00, 0x25, 0x60, 0x10, 0x11, 0x06, 0x2C, 0x08, 0x02, 
  0x80, 0x01, 0x40, 0xB0, 0x00, 0x06, 0x6C, 0x00, 0x02, 0x80, 0x17, 0x68, 
  0x30, 0x10, 0x04, 0x08, 0x10, 0x03, 0x80, 0x55, 0x4A, 0x60, 0x49, 0x06, 
  0x18, 0x41, 0x02, 0x00, 0x01, 0x60, 0xA0, 0x00, 0x04, 0x58, 0x08, 0x03, 
  0x00, 0x03, 0x21, 0x60, 0x19, 0x04, 0x18, 0x10, 0x03, 0x00, 0x27, 0x30, 
  0x40, 0x00, 0x0C, 0x58, 0x09, 0x03, 0x00, 0x4E, 0x18, 0x60, 0x42, 0x04, 
  0x98, 0x50, 0x01, 0x00, 0xFC, 0x0F, 0xC0, 0x10, 0x0C, 0x30, 0x00, 0x01, 
  0x00, 0xE0, 0x03, 0x40, 0x00, 0x0C, 0x10, 0x88, 0x01, 0x00, 0x00, 0x00, 
  0xC0, 0x9D, 0x05, 0x70, 0x80, 0x00, 0x00, 0x00, 0x00, 0x80, 0xFF, 0x07, 
  0xF0, 0xFF, 0x00, 0x00, 0x00, 0x00, 0x00, 0x00, 0x00, 0xA0, 0x55, 0x00, 
  0x00, 0x00, 0x00, 0x00, 0x00, 0x00, 0x00, 0x00, 0x00, 0x00, 0x00, 0x00, 
  0x00, 0x00, 0x00, 0x00, 0x00, 0x00, 0x00, 0x00, 0x00, 0x00, 0x00, 0x00, 
  0x00, 0x00, 0x00, 0x00, 0x00, 0x00, 0x00, 0x00, 0x00, 0x00, 0x00, 0x00, 
  };
